<svg width="128" height="128" viewBox="0 0 128 128" fill="none" xmlns="http://www.w3.org/2000/svg">
<path d="M56.6 12.19C79.63 6.19 107.25 25.75 101.51 58.3C96.91 84.35 85.05 92.44 72.58 102.7C66.81 107.45 60.22 122.23 47.45 120.79C32.11 119.07 29.31 106.64 29.77 97.81C30.5 83.85 32.54 75.79 31.61 65.84C29.04 38.28 32.87 18.37 56.6 12.19Z" fill="#FFCA28"/>
<path d="M74.93 78.17C72.82 86.71 66.93 87.26 61.26 90.03C56.88 92.17 55.33 93.87 52.05 97.5C49.2 100.65 42.69 100.21 39.1 94.91C37.87 93.1 37.46 88.46 39.6 85.04C44.32 77.48 39.67 73.43 40.41 69.63C41.21 65.57 45.21 65.17 47.67 66.81C51.47 69.33 53.58 72.41 54.87 74.44C55.97 76.16 57.89 76.78 57.91 72.94C57.95 63.57 40.74 51.43 47.58 35.47C52.69 23.54 63.7 20.1 75.2 25.35C86.53 30.52 94.64 41.37 93.73 54.34C93.29 60.51 90.56 66.5 86.18 70.87C87.12 69.93 86.53 49.57 77.14 45.03C72.92 43 66.9 44.6 65.5 49.04C64.63 51.81 65.67 54.85 67.23 57.3C68.79 59.75 70.86 61.85 72.36 64.35C75.12 68.94 75.98 73.89 74.93 78.17Z" fill="#FFB300"/>
<path d="M41.09 67.84C40.78 68.33 40.54 68.92 40.4 69.63C39.66 73.42 44.3 77.47 39.59 85.04C38.07 87.48 37.85 90.52 38.28 92.73C40.62 93.64 43.85 93.71 47.65 90.24C50.07 88.04 50.84 84.43 50.33 81.28C49.01 73.2 45 72.66 41.09 67.84Z" fill="#F09300"/>
<path d="M78.64 89.47C92.07 71.45 97.79 58.43 92.19 39.83C89.72 31.61 80.99 24.03 73.3 21.63C66.4 19.47 58.58 20.75 52.89 24.96C49.33 27.59 42.37 36.39 43.57 46.8C44.53 55.19 48.05 59.1 50.95 61.97C55.83 66.81 57.51 70.3 57.51 70.3C57.32 68.11 57.39 66.58 53.79 61.29C51.66 58.16 48.05 53.6 47.22 46.38C47.06 44.97 47.1 43.65 47.27 42.38C49.18 45.84 54.41 51.1 64.27 58.41C79.75 69.88 72.58 83.44 67.13 85.7C63.17 87.34 59.07 88.48 55.88 91.51C54.51 92.81 53.45 94.51 53.21 96.38C57.74 90.55 63.73 90.97 69.63 88.02C74.69 85.49 76.63 83.08 77.46 75.78C78.13 69.89 76.04 64.22 72.04 59.88C69.35 56.97 56.75 47.29 54.79 44.06C52.45 40.2 51.17 34.28 55.37 29.47C60.14 25.94 66.7 24.88 72.5 26.69C79.02 28.73 87.11 35.93 89.24 42.97C93.12 55.86 88.58 65.8 82.35 78.03C78.67 85.3 78.64 89.47 78.64 89.47Z" fill="#F09300"/>
</svg>
