<svg width="10" height="11" viewBox="0 0 10 11" fill="none" xmlns="http://www.w3.org/2000/svg">
<path d="M4.94351 0C3.0974 0 1.39584 1.386 1.04144 2.91328C0.962545 3.25239 0.873857 4.13961 0.873857 4.13961L0.0256544 6.27945C0.00469026 6.32931 -0.00362575 6.38357 0.00144616 6.43741C0.00651808 6.49126 0.0248207 6.54301 0.0547255 6.58807C0.0846303 6.63313 0.12521 6.6701 0.172854 6.69569C0.220498 6.72128 0.273729 6.7347 0.327811 6.73475H0.417873C0.40739 6.699 0.40646 6.66113 0.415175 6.62491C0.423891 6.5887 0.441947 6.55539 0.467545 6.52833C0.592345 6.39833 0.730102 6.28142 0.87867 6.17942C0.902211 6.16343 0.928672 6.15223 0.956541 6.14647C0.984411 6.1407 1.01314 6.14048 1.0411 6.14582C1.06905 6.15116 1.09568 6.16195 1.11946 6.17758C1.14325 6.19321 1.16372 6.21337 1.17971 6.23691C1.1957 6.26046 1.2069 6.28692 1.21266 6.31479C1.21843 6.34265 1.21865 6.37139 1.21331 6.39934C1.20797 6.42729 1.19718 6.45392 1.18155 6.47771C1.16592 6.50149 1.14576 6.52196 1.12222 6.53795C1.03697 6.5957 0.954295 6.66583 0.873857 6.74077V7.53672H1.06515C1.12264 7.53672 1.17776 7.55955 1.21841 7.6002C1.25905 7.64084 1.28189 7.69597 1.28189 7.75345C1.28189 7.81094 1.25905 7.86606 1.21841 7.90671C1.17776 7.94735 1.12264 7.97019 1.06515 7.97019H0.87867C0.929373 8.81048 1.62495 9.47684 2.47865 9.47684H3.11511V10.7233H4.06781V10.5609C4.06665 10.5317 4.07139 10.5025 4.08176 10.4752C4.09213 10.4479 4.10791 10.423 4.12815 10.4019C4.14839 10.3809 4.17267 10.3641 4.19955 10.3527C4.22642 10.3412 4.25533 10.3353 4.28454 10.3353C4.31376 10.3353 4.34267 10.3412 4.36954 10.3527C4.39642 10.3641 4.4207 10.3809 4.44094 10.4019C4.46118 10.423 4.47696 10.4479 4.48733 10.4752C4.4977 10.5025 4.50244 10.5317 4.50128 10.5609V10.7233H4.89092V10.5612C4.88976 10.532 4.8945 10.5029 4.90487 10.4756C4.91524 10.4483 4.93102 10.4233 4.95126 10.4023C4.9715 10.3812 4.99578 10.3645 5.02266 10.353C5.04953 10.3416 5.07844 10.3357 5.10765 10.3357C5.13687 10.3357 5.16578 10.3416 5.19265 10.353C5.21953 10.3645 5.24381 10.3812 5.26405 10.4023C5.28429 10.4233 5.30007 10.4483 5.31044 10.4756C5.32081 10.5029 5.32555 10.532 5.32439 10.5612V10.7233H7.45753V7.26911C8.40387 6.52472 9.01231 5.36731 9.01231 4.06931C9.01214 1.82205 7.19164 0 4.94351 0ZM1.87675 4.03236C1.93639 4.03236 1.99545 4.04412 2.05055 4.06696C2.10565 4.08981 2.1557 4.1233 2.19784 4.1655C2.23998 4.20771 2.27339 4.25781 2.29616 4.31294C2.31892 4.36807 2.33059 4.42715 2.3305 4.4868C2.3305 4.60717 2.2827 4.72262 2.19762 4.80777C2.11253 4.89292 1.99712 4.9408 1.87675 4.94089C1.75627 4.94089 1.64073 4.89303 1.55553 4.80784C1.47034 4.72265 1.42248 4.6071 1.42248 4.48663C1.42248 4.36615 1.47034 4.2506 1.55553 4.16541C1.64073 4.08022 1.75627 4.03236 1.87675 4.03236ZM1.37762 6.1435C1.36974 6.11616 1.36733 6.08753 1.37052 6.05925C1.37371 6.03097 1.38244 6.0036 1.39622 5.9787C1.40999 5.95379 1.42854 5.93185 1.4508 5.91412C1.47306 5.8964 1.4986 5.88323 1.52595 5.87537C1.69989 5.82593 1.87863 5.79528 2.05911 5.78394C2.08757 5.78179 2.11617 5.78534 2.14325 5.79436C2.17032 5.80339 2.19532 5.81773 2.2168 5.83653C2.23827 5.85533 2.25578 5.87822 2.26831 5.90387C2.28084 5.92951 2.28813 5.9574 2.28976 5.98589C2.2917 6.0143 2.28802 6.04282 2.27892 6.0698C2.26982 6.09679 2.25549 6.12172 2.23675 6.14316C2.21801 6.1646 2.19522 6.18213 2.16969 6.19475C2.14417 6.20738 2.1164 6.21484 2.08798 6.21672C1.93845 6.22593 1.79035 6.25129 1.64626 6.29234C1.59093 6.30806 1.53162 6.30122 1.48131 6.27333C1.431 6.24544 1.39361 6.19876 1.37762 6.1435ZM2.21105 7.97002H1.71536C1.65788 7.97002 1.60275 7.94718 1.5621 7.90654C1.52146 7.86589 1.49862 7.81076 1.49862 7.75328C1.49862 7.6958 1.52146 7.64067 1.5621 7.60003C1.60275 7.55938 1.65788 7.53655 1.71536 7.53655H2.21105C2.26853 7.53655 2.32365 7.55938 2.3643 7.60003C2.40495 7.64067 2.42778 7.6958 2.42778 7.75328C2.42778 7.81076 2.40495 7.86589 2.3643 7.90654C2.32365 7.94718 2.26853 7.97002 2.21105 7.97002ZM5.03925 4.98077H5.53494C5.59242 4.98077 5.64754 5.0036 5.68819 5.04425C5.72884 5.08489 5.75167 5.14002 5.75167 5.1975C5.75167 5.25498 5.72884 5.31011 5.68819 5.35075C5.64754 5.3914 5.59242 5.41423 5.53494 5.41423H5.03925C4.98177 5.41423 4.92664 5.3914 4.88599 5.35075C4.84535 5.31011 4.82251 5.25498 4.82251 5.1975C4.82251 5.14002 4.84535 5.08489 4.88599 5.04425C4.92664 5.0036 4.98177 4.98077 5.03925 4.98077ZM3.86517 5.55208C3.96451 5.37367 4.118 5.22689 4.3093 5.12875C4.36003 5.10532 4.41786 5.10239 4.47071 5.12055C4.52356 5.13871 4.56737 5.17657 4.59299 5.22624C4.61861 5.27591 4.62407 5.33355 4.60823 5.38715C4.5924 5.44074 4.55648 5.48616 4.50798 5.51392C4.39317 5.57339 4.3019 5.65933 4.24398 5.76314C4.23018 5.78804 4.2116 5.80998 4.1893 5.8277C4.16701 5.84541 4.14144 5.85856 4.11407 5.86638C4.08669 5.8742 4.05803 5.87655 4.02975 5.87329C4.00146 5.87002 3.97409 5.86121 3.94922 5.84736C3.89895 5.81932 3.86186 5.77247 3.8461 5.71711C3.83034 5.66174 3.8372 5.60239 3.86517 5.55208ZM2.50684 5.99706C2.51143 5.96893 2.52152 5.94198 2.53654 5.91776C2.55155 5.89353 2.57119 5.8725 2.59434 5.85587C2.61748 5.83923 2.64368 5.82733 2.67143 5.82082C2.69918 5.81432 2.72794 5.81335 2.75606 5.81797C2.93159 5.84674 3.10425 5.89091 3.27203 5.94997C3.29889 5.95938 3.32362 5.97399 3.34483 5.99297C3.36604 6.01195 3.3833 6.03492 3.39562 6.06057C3.40794 6.08622 3.41509 6.11405 3.41665 6.14247C3.41821 6.17088 3.41416 6.19932 3.40472 6.22617C3.38571 6.28042 3.34593 6.32489 3.29413 6.3498C3.24233 6.37472 3.18276 6.37804 3.12851 6.35903C2.98446 6.30884 2.8364 6.27101 2.68594 6.24594C2.65783 6.24136 2.6309 6.2313 2.60669 6.21632C2.58248 6.20133 2.56145 6.18172 2.54482 6.15861C2.52819 6.1355 2.51627 6.10933 2.50976 6.08161C2.50324 6.0539 2.50225 6.02516 2.50684 5.99706ZM3.51231 8.06455C3.48476 8.11499 3.43836 8.15248 3.38326 8.16881C3.32815 8.18514 3.26881 8.17898 3.21823 8.15169C3.09147 8.08309 2.95532 8.03347 2.81415 8.00439C2.78628 7.9986 2.75982 7.98738 2.73628 7.97136C2.71274 7.95535 2.69259 7.93485 2.67697 7.91105C2.66136 7.88724 2.65058 7.86059 2.64526 7.83263C2.63994 7.80466 2.64019 7.77591 2.64597 7.74804C2.65176 7.72016 2.66299 7.6937 2.679 7.67016C2.69502 7.64663 2.71552 7.62647 2.73932 7.61086C2.76312 7.59524 2.78977 7.58447 2.81774 7.57915C2.84571 7.57383 2.87445 7.57407 2.90233 7.57986C3.08726 7.61853 3.26344 7.68264 3.425 7.77047C3.53036 7.82788 3.56937 7.9597 3.51231 8.06455ZM3.60117 6.32139C3.64345 6.25505 3.71615 6.22308 3.78955 6.22463C3.81137 6.1557 3.86397 6.09744 3.93925 6.07819C3.96684 6.07114 3.99555 6.06961 4.02374 6.07366C4.05193 6.07772 4.07904 6.0873 4.10353 6.10184C4.12801 6.11638 4.14939 6.1356 4.16644 6.15841C4.1835 6.18122 4.19589 6.20717 4.2029 6.23477C4.25705 6.44686 4.36722 6.62956 4.36825 6.63145C4.39618 6.67663 4.40655 6.7305 4.39738 6.78282C4.38822 6.83514 4.36016 6.88228 4.31853 6.91527C4.2769 6.94827 4.22461 6.96483 4.17158 6.96181C4.11855 6.95879 4.06847 6.9364 4.03086 6.89889C3.91794 6.79595 3.79638 6.70291 3.66751 6.6208C3.61907 6.58988 3.58488 6.54101 3.57244 6.4849C3.56 6.4288 3.57033 6.36988 3.60117 6.32139ZM3.88115 8.8837C3.82096 8.75013 3.7436 8.62498 3.65101 8.51142C3.63293 8.48943 3.61936 8.46408 3.61109 8.43684C3.60281 8.40959 3.59999 8.38098 3.60278 8.35264C3.60558 8.32431 3.61393 8.2968 3.62737 8.2717C3.64081 8.24659 3.65906 8.22438 3.68109 8.20634C3.70308 8.18824 3.72842 8.17465 3.75567 8.16636C3.78292 8.15808 3.81153 8.15525 3.83988 8.15804C3.86822 8.16084 3.89573 8.1692 3.92084 8.18265C3.94594 8.1961 3.96814 8.21437 3.98617 8.23642C4.10253 8.37903 4.19983 8.53619 4.27561 8.70392C4.29078 8.73689 4.29742 8.77316 4.29489 8.80937C4.29237 8.84558 4.28077 8.88057 4.26116 8.91112C4.24156 8.94166 4.21457 8.96678 4.18271 8.98416C4.15084 9.00154 4.11511 9.01061 4.07881 9.01055C4.03717 9.01049 3.99642 8.99849 3.96138 8.97598C3.92635 8.95347 3.89851 8.92156 3.88115 8.8837ZM4.50128 9.91031C4.50128 9.96779 4.47845 10.0229 4.4378 10.0636C4.39715 10.1042 4.34203 10.127 4.28454 10.127C4.22706 10.127 4.17194 10.1042 4.13129 10.0636C4.09064 10.0229 4.06781 9.96779 4.06781 9.91031V9.78914C4.06781 9.67313 4.05956 9.55831 4.04375 9.44745C4.03559 9.39051 4.05032 9.33266 4.08473 9.28656C4.11913 9.24046 4.1704 9.20988 4.22731 9.2015C4.25552 9.1973 4.28429 9.19874 4.31194 9.20573C4.33959 9.21272 4.36558 9.22513 4.38841 9.24223C4.41123 9.25934 4.43044 9.2808 4.44492 9.30537C4.4594 9.32995 4.46885 9.35715 4.47275 9.38541C4.492 9.51655 4.50128 9.65233 4.50128 9.78914V9.91031ZM4.6515 7.74761C4.58781 7.60882 4.51212 7.47586 4.42531 7.35023C4.39464 7.3029 4.3836 7.24549 4.39455 7.19016C4.4055 7.13483 4.43757 7.08594 4.48395 7.05386C4.53034 7.02178 4.5874 7.00903 4.64303 7.01832C4.69867 7.0276 4.74849 7.05819 4.78195 7.10359C4.88284 7.24969 4.9717 7.40541 5.04561 7.56662C5.06963 7.61889 5.07191 7.67855 5.05194 7.73249C5.03197 7.78644 4.99139 7.83024 4.93913 7.85426C4.88687 7.87828 4.8272 7.88056 4.77326 7.86059C4.71932 7.84062 4.67552 7.79987 4.6515 7.74761ZM4.88989 8.77112C4.88578 8.61854 4.86841 8.4666 4.83798 8.31703C4.83232 8.28913 4.8322 8.26039 4.83764 8.23245C4.84309 8.20451 4.85398 8.17791 4.8697 8.15418C4.88542 8.13045 4.90566 8.11004 4.92927 8.09413C4.95287 8.07822 4.97938 8.06712 5.00728 8.06145C5.03518 8.05579 5.06392 8.05567 5.09186 8.06112C5.1198 8.06656 5.1464 8.07745 5.17013 8.09317C5.19386 8.10889 5.21427 8.12913 5.23018 8.15274C5.24609 8.17634 5.25719 8.20285 5.26286 8.23075C5.29809 8.40417 5.31854 8.58223 5.32336 8.75944C5.32418 8.78786 5.31939 8.81617 5.30926 8.84274C5.29913 8.86931 5.28385 8.89362 5.26431 8.91428C5.24477 8.93494 5.22134 8.95154 5.19538 8.96314C5.16941 8.97473 5.14141 8.98109 5.11298 8.98184C5.11075 8.98219 5.10886 8.98219 5.10662 8.98219C4.98992 8.98219 4.89333 8.88852 4.88989 8.77112ZM5.32439 9.91083C5.32439 9.96831 5.30155 10.0234 5.26091 10.0641C5.22026 10.1047 5.16514 10.1276 5.10765 10.1276C5.05017 10.1276 4.99505 10.1047 4.9544 10.0641C4.91375 10.0234 4.89092 9.96831 4.89092 9.91083V9.41566C4.88976 9.38647 4.8945 9.35735 4.90487 9.33004C4.91524 9.30273 4.93102 9.27779 4.95126 9.25673C4.9715 9.23567 4.99578 9.21891 5.02266 9.20746C5.04953 9.19602 5.07844 9.19012 5.10765 9.19012C5.13687 9.19012 5.16578 9.19602 5.19265 9.20746C5.21953 9.21891 5.24381 9.23567 5.26405 9.25673C5.28429 9.27779 5.30007 9.30273 5.31044 9.33004C5.32081 9.35735 5.32555 9.38647 5.32439 9.41566V9.91083ZM5.44333 6.40148V6.03212L5.51483 6.03144C5.73659 6.03072 5.94909 5.94243 6.10608 5.78579C6.26307 5.62916 6.35184 5.41686 6.35306 5.19509C6.35184 4.97333 6.26307 4.76103 6.10608 4.60439C5.94909 4.44776 5.73659 4.35947 5.51483 4.35875L5.44333 4.35841V3.98956H5.51534C6.18119 3.98956 6.72276 4.53011 6.72276 5.19527C6.72276 5.86025 6.18119 6.40166 5.51534 6.40166L5.44333 6.40148Z" fill="#FFDD67"/>
</svg>
