<svg width="339" height="371" viewBox="0 0 339 371" fill="none" xmlns="http://www.w3.org/2000/svg">
<path d="M88.4997 119.5C132 49.5 241 51.9999 278.5 119.5L338.5 83.9999C301.5 21.5 232 -8.00003 149.5 1.99995C-73.9998 57 -22.5 344 148.5 367V305.5L166 307V370.5H176V284C174.5 269 159.5 253.5 143 252H115L114 260H131.5C150.5 257.5 168 270.5 166 290.5L158 288.5H117.5C95.9997 288.5 73.9996 272 73.9996 247V205.5C74.4052 201.159 73.7924 199.303 70.4996 197.5L53.4997 189C51.1665 186.209 51.1666 184.457 53.4997 181L88.4997 119.5Z" fill="white"/>
<path d="M235.5 290.5V363.5C275 356.5 320.5 321 338.5 288.5L278.5 252C264.393 272.418 255.226 281.343 235.5 290.5Z" fill="white"/>
<path d="M123 148.5C116.5 146 109 151 109 158.5C110 168.5 121 171 127 165C130.5 161 132 152.5 123 148.5Z" fill="white"/>
<path d="M229 182C235.5 155 198.5 143.5 185.5 167.5C184.5 171.5 191.088 175 194 170.5C199.124 162.581 209 160.5 215.5 165.5C222 170.5 221 182 206 204C203 209.5 196 209 195 203.5V196C193 193 188.5 193 186 196C185.492 208.608 187.205 212.838 195 216C209.5 218 213 214 229 182Z" fill="white"/>
</svg>
