<svg xmlns="http://www.w3.org/2000/svg" viewBox="0 0 112 112">
  <defs>
    <clipPath id="a">
      <circle cx="72.58" cy="53.81" r="12.08" fill="none"/>
    </clipPath>
  </defs>
  <g clip-path="url(#a)">
    <circle cx="72.58" cy="53.81" r="12.08" fill="#E9E27B"/>
    <circle cx="62.18" cy="40.55" r="14.72" fill="#00B5C8"/>
    <circle cx="88.92" cy="39.27" r="14.72" fill="#00B5C8"/>
  </g>
  <path d="M27.37 17.56h11.3a3.84 3.84 0 013.84 3.84v15h-19v-15a3.84 3.84 0 013.86-3.84z" fill="#99EAF3"/>
  <rect width="19" height="24.75" x="23.52" y="26.9" fill="#E9E27B" rx="8.65"/>
  <path fill="#99EAF3" d="M18.87 55.28h28.3a7 7 0 017 7v37.36H11.92V62.23a7 7 0 016.95-6.95z"/>
  <path fill="#00B5C8" d="M68.63 68.28h5.06A26.12 26.12 0 0199.8 94.4v5.25H42.51V94.4a26.12 26.12 0 0126.12-26.12z"/>
  <circle cx="66.32" cy="35.2" r="7.55" fill="#00B5C8"/>
</svg>
